<svg id="Layer_1" data-name="Layer 1" xmlns="http://www.w3.org/2000/svg" viewBox="0 0 461.89 177.12"><defs><style>.cls-1,.cls-2{fill:#939393;}.cls-1{opacity:0.74;}</style></defs><title>GMP Certified</title><polygon class="cls-1" points="70.81 170.28 149.27 48.99 204.41 48.99 204.41 170.28 70.81 170.28"/><rect class="cls-2" y="5.31" width="216.73" height="38.82"/><path class="cls-2" d="M211.24,177.12H5.49v-135H211.24ZM19.16,163.44H197.57V55.83H19.16Z"/><polygon class="cls-1" points="271.56 169 316.45 117.08 320.5 116.98 319 170.28 271.56 169"/><rect class="cls-2" x="268.51" y="38.84" width="46.8" height="20.71"/><path class="cls-2" d="M291.91,0h0a11.2,11.2,0,0,1,11.2,11.2V43A2.06,2.06,0,0,1,301,45.07H282.78A2.06,2.06,0,0,1,280.71,43V11.2A11.2,11.2,0,0,1,291.91,0Z"/><path class="cls-2" d="M323.42,174.77h-63V55.67h63Zm-49.33-13.68h35.66V69.35H274.08Z"/><polygon class="cls-1" points="379.6 168.22 452.11 84.32 458.66 84.17 456.23 170.28 379.6 168.22"/><rect class="cls-2" x="371.01" y="17.63" width="84.04" height="33.49"/><path class="cls-2" d="M461.89,174.77H364.18V44.28h97.71Zm-84-13.68h70.36V58H377.85Z"/></svg>