<svg id="Layer_1" data-name="Layer 1" xmlns="http://www.w3.org/2000/svg" viewBox="0 0 358.13 253.77"><defs><style>.cls-1,.cls-2{fill:#939393;}.cls-1{opacity:0.74;}</style></defs><title>REGISTER</title><polygon class="cls-1" points="149.39 211.3 325.4 7.67 354.43 6.84 351.49 216.91 149.39 211.3"/><path class="cls-2" d="M161.19,220.5v26.44h40.29V220.5"/><path class="cls-2" d="M136,52.72H47.19V170.06H136Zm-82.35,110c0-11.66,11.88-42.23,38-42.22A21.11,21.11,0,1,1,112.69,99.4a21.11,21.11,0,0,1-21.11,21.11c25.08,0,38,30.56,38,42.22Z"/><rect class="cls-2" x="168.02" y="69.96" width="147.98" height="6.2"/><rect class="cls-2" x="168.02" y="94.55" width="147.98" height="6.2"/><rect class="cls-2" x="168.02" y="119.13" width="147.98" height="6.2"/><rect class="cls-2" x="168.02" y="146.82" width="66.63" height="23.24"/><path class="cls-2" d="M358.13,223.75H0V0H358.13ZM13.68,210.07H344.46V13.68H13.68Z"/><rect class="cls-2" x="122.59" y="240.1" width="112.95" height="13.68"/></svg>