<svg id="Layer_1" data-name="Layer 1" xmlns="http://www.w3.org/2000/svg" viewBox="0 0 198.33 251.17"><defs><style>.cls-1{fill:#939393;opacity:0.74;}.cls-2{fill:#939598;}</style></defs><title>SERVICE</title><polygon class="cls-1" points="82.6 235.04 103 211.44 108.2 233.35 97.57 240.17 82.6 235.04"/><path class="cls-2" d="M96.91,251.17A21.15,21.15,0,1,1,118.06,230,21.17,21.17,0,0,1,96.91,251.17Zm0-28.62a7.47,7.47,0,1,0,7.47,7.47A7.48,7.48,0,0,0,96.91,222.54Z"/><polygon class="cls-1" points="145.78 159.79 192.39 105.86 188.99 173.13 173.59 177 145.78 159.79"/><path class="cls-2" d="M119.61,239.64a75,75,0,0,1-13.24-1.18L108.79,225a61,61,0,0,0,10.82,1c35.87,0,65-31.36,65-69.9V133.81h13.68v22.25C198.33,202.15,163,239.64,119.61,239.64Z"/><path class="cls-2" d="M188,184.15H176.74c-22.14,0-40.15-20-40.15-44.58v-8.71c0-24.58,18-44.58,40.15-44.58H188V100H176.74c-14.6,0-26.47,13.86-26.47,30.9v8.71c0,17,11.88,30.9,26.47,30.9H188Z"/><path class="cls-2" d="M198.33,156.06H184.65V110.53C184.65,60,146.3,18.8,99.16,18.8S13.68,60,13.68,110.53V139.1H0V110.53C0,52.41,44.48,5.13,99.16,5.13s99.16,47.28,99.16,105.4Z"/><path class="cls-2" d="M169.18,66.27l-7.11-9.62c-15.37-20.79-38.29-32.71-62.9-32.71S51.62,35.86,36.26,56.64l-7.11,9.62L9.91,52,17,42.42C36.94,15.46,66.88,0,99.16,0s62.23,15.46,82.15,42.42L188.42,52Z"/><rect class="cls-2" y="117.06" width="22.08" height="39.88"/></svg>