<?xml version="1.0" encoding="utf-8"?>
<!-- Generator: Adobe Illustrator 19.1.0, SVG Export Plug-In . SVG Version: 6.00 Build 0)  -->
<svg version="1.1"
	 id="svg2" xmlns:svg="http://www.w3.org/2000/svg" xmlns:cc="http://creativecommons.org/ns#" xmlns:rdf="http://www.w3.org/1999/02/22-rdf-syntax-ns#" xmlns:dc="http://purl.org/dc/elements/1.1/"
	 xmlns="http://www.w3.org/2000/svg" xmlns:xlink="http://www.w3.org/1999/xlink" x="0px" y="0px" viewBox="111 325.1 835 143.9"
	 style="enable-background:new 111 325.1 835 143.9;" xml:space="preserve">
<style type="text/css">
	.st0{fill:#5D5F66;}
	.st1{fill:#EB9C48;}
	.st2{fill:#1F4677;}
	.st3{fill:#575757;}
	.st4{font-family:'Gadugi-Bold';}
	.st5{font-size:16.2135px;}
	.st6{clip-path:url(#SVGID_2_);}
	.st7{clip-path:url(#SVGID_4_);}
</style>
<g id="g10" transform="matrix(1.3333333,0,0,-1.3333333,0,143.94667)">
	<g id="g12" transform="scale(0.1)">
		<g id="g10_2_" transform="matrix(1.3333333,0,0,-1.3333333,0,143.94667)">
			<g id="g12_2_" transform="scale(0.1)">
				<g>
					<g id="g16_2_">
						<path id="path22_2_" class="st0" d="M20554.8,13113.2h6326.3v984.9h-2373.8v4603.7h-1637.2v-4603.7h-2315.3V13113.2"/>
						<path id="path24_2_" class="st0" d="M27238.4,18701.8h1637.2v-5588.6h-1637.2V18701.8z"/>
						<path id="path26_2_" class="st0" d="M29891.1,13113.2h1637.2v4206.7c0,404.6,385.9,397,724.9,397h2132.3v984.9h-2717
							c-923.8,0-1777.4-229-1777.4-1084.1V13113.2"/>
						<path id="path28_2_" class="st0" d="M43260.3,16518.3l1029.1-2000.3l958.7,2000.3
							C45248.1,16518.3,43260.3,16518.3,43260.3,16518.3z M38354.6,15640.3h-1941.1v-1580.4h1941.1c514.7,0,841.9,160.4,841.9,794.1
							C39196.5,15533.4,38915.9,15640.3,38354.6,15640.3z M45201.5,13113.2h-1859.3l-2621.4,5072.1L39477.1,16503
							c479.5-99.2,1368.2-267.2,1368.2-1649c0-1336.1-994.1-1740.8-2338.6-1740.8h-3742v5588.6h1637V16587H37840l1415,2114.8h2952.8
							l619.6-1236.7h2806.5l608.1,1236.7h1742.3L45201.5,13113.2"/>
						<path id="path30_2_" class="st0" d="M47926.4,13113.2l1672.2,2679.8l1835.8-2679.8h1777.4l-2818.1,3855.6v1733h-1637v-1733
							L46149,13113.3L47926.4,13113.2"/>
						<path id="path32_2_" class="st1" d="M13503.9,15438.9l3172.1-1985.1l-1386.5-1840l-1996.8,3681.4
							C13366.6,15337.2,13437.1,15385.3,13503.9,15438.9"/>
						<path id="path34_2_" class="st1" d="M14031.8,16192.5l4306.5-532.7L16958.7,13829l-3034.2,2116.2
							C13967.3,16024.8,14003.1,16107.4,14031.8,16192.5"/>
						<path id="path36_2_" class="st1" d="M14069.8,17099.6l6329.5,1295.2L18655,16080l-4542.9,746.8
							C14105.7,16919.5,14091.5,17010.7,14069.8,17099.6"/>
						<path id="path38_2_" class="st2" d="M20704.2,18829.3c-1950.6-280.3-6188.8-893.8-7148.7-1070.8
							c-977-180.1-1534.8-598.4-1534.8-1446.1c0-447.7,232.7-714.6,497.5-1131.3c890-1400.3,2514.2-3908.6,2514.2-3908.6h-1762.1
							l-7026.6,8096.8h14867.4L20704.2,18829.3"/>
						<path id="path42_2_" class="st0" d="M50703.5,18055.1h155.7l174.2,494.5h1.8l169.8-494.5h154v631.6h-105.3v-487.4h-1.8
							l-175.1,487.4h-91.1l-175.2-487.4h-1.7v487.4h-105.2v-631.6"/>
						<text transform="matrix(53.3435 0 0 56.25 51421.9297 18677.4297)" class="st3 st4 st5">C</text>
					</g>
				</g>
			</g>
		</g>
		<g id="g10_1_" transform="matrix(1.3333333,0,0,-1.3333333,0,143.94667)">
			<g id="g12_1_" transform="scale(0.1)">
				<g>
					<g>
						<defs>
							<rect id="SVGID_1_" x="29718.7" y="15319.6" width="14.8" height="2.6"/>
						</defs>
						<clipPath id="SVGID_2_">
							<use xlink:href="#SVGID_1_"  style="overflow:visible;"/>
						</clipPath>
						<g id="g16_1_" class="st6">
							<path id="path22_1_" class="st0" d="M20554.8,13113.2h6326.3v984.9h-2373.8v4603.7h-1637.2v-4603.7h-2315.3V13113.2"/>
							<path id="path24_1_" class="st0" d="M27238.4,18701.8h1637.2v-5588.6h-1637.2V18701.8z"/>
							<path id="path26_1_" class="st0" d="M29891.1,13113.2h1637.2v4206.7c0,404.6,385.9,397,724.9,397h2132.3v984.9h-2717
								c-923.8,0-1777.4-229-1777.4-1084.1V13113.2"/>
							<path id="path28_1_" class="st0" d="M43260.3,16518.3l1029.1-2000.3l958.7,2000.3
								C45248.1,16518.3,43260.3,16518.3,43260.3,16518.3z M38354.6,15640.3h-1941.1v-1580.4h1941.1
								c514.7,0,841.9,160.4,841.9,794.1C39196.5,15533.4,38915.9,15640.3,38354.6,15640.3z M45201.5,13113.2h-1859.3
								l-2621.4,5072.1L39477.1,16503c479.5-99.2,1368.2-267.2,1368.2-1649c0-1336.1-994.1-1740.8-2338.6-1740.8h-3742v5588.6h1637
								V16587H37840l1415,2114.8h2952.8l619.6-1236.7h2806.5l608.1,1236.7h1742.3L45201.5,13113.2"/>
							<path id="path30_1_" class="st0" d="M47926.4,13113.2l1672.2,2679.8l1835.8-2679.8h1777.4l-2818.1,3855.6v1733h-1637v-1733
								L46149,13113.3L47926.4,13113.2"/>
							<path id="path32_1_" class="st1" d="M13503.9,15438.9l3172.1-1985.1l-1386.5-1840l-1996.8,3681.4
								C13366.6,15337.2,13437.1,15385.3,13503.9,15438.9"/>
							<path id="path34_1_" class="st1" d="M14031.8,16192.5l4306.5-532.7L16958.7,13829l-3034.2,2116.2
								C13967.3,16024.8,14003.1,16107.4,14031.8,16192.5"/>
							<path id="path36_1_" class="st1" d="M14069.8,17099.6l6329.5,1295.2L18655,16080l-4542.9,746.8
								C14105.7,16919.5,14091.5,17010.7,14069.8,17099.6"/>
							<path id="path38_1_" class="st2" d="M20704.2,18829.3c-1950.6-280.3-6188.8-893.8-7148.7-1070.8
								c-977-180.1-1534.8-598.4-1534.8-1446.1c0-447.7,232.7-714.6,497.5-1131.3c890-1400.3,2514.2-3908.6,2514.2-3908.6h-1762.1
								l-7026.6,8096.8h14867.4L20704.2,18829.3"/>
							<path id="path42_1_" class="st0" d="M50703.5,18055.1h155.7l174.2,494.5h1.8l169.8-494.5h154v631.6h-105.3v-487.4h-1.8
								l-175.1,487.4h-91.1l-175.2-487.4h-1.7v487.4h-105.2v-631.6"/>
							<text transform="matrix(53.3435 0 0 56.25 51421.9297 18677.4297)" class="st3 st4 st5">C</text>
						</g>
					</g>
				</g>
			</g>
		</g>
		<g>
			<g>
				<defs>
					<rect id="SVGID_3_" x="3907.8" y="-1908.5" width="111.3" height="19.2"/>
				</defs>
				<clipPath id="SVGID_4_">
					<use xlink:href="#SVGID_3_"  style="overflow:visible;"/>
				</clipPath>
				<g id="g16" class="st7">
					<path id="path22" class="st0" d="M2740.6-1604.4h843.5v-131.3h-316.5v-613.9h-218.3v613.8h-308.7V-1604.4"/>
					<path id="path24" class="st0" d="M3631.8-2349.6h218.3v745.1h-218.3V-2349.6z"/>
					<path id="path26" class="st0" d="M3985.5-1604.4h218.3v-560.9c0-53.9,51.4-52.9,96.7-52.9h284.3v-131.4h-362.3
						c-123.2,0-237,30.5-237,144.5V-1604.4"/>
					<path id="path28" class="st0" d="M5768.1-2058.4l137.2,266.7l127.8-266.7H5768.1z M5114-1941.4h-258.8v210.8H5114
						c68.6,0,112.3-21.4,112.3-105.9C5226.2-1927.1,5188.8-1941.4,5114-1941.4z M6026.9-1604.4H5779l-349.5-676.3l-165.8,224.3
						c63.9,13.2,182.4,35.6,182.4,219.9c0,178.1-132.5,232.1-311.8,232.1h-498.9v-745.2h218.3v282h191.8l188.7-282h393.7l82.6,164.9
						h374.2l80.9-164.9h232.3L6026.9-1604.4"/>
					<path id="path30" class="st0" d="M6390.2-1604.4l223-357.3l244.8,357.3h237l-375.8-514.1v-231.1h-218.3v231.1l-347.7,514.1
						L6390.2-1604.4"/>
					<path id="path32" class="st1" d="M1800.5-1914.5l423,264.7l-184.9,245.3l-266.2-490.8C1782.2-1901,1791.6-1907.4,1800.5-1914.5
						"/>
					<path id="path34" class="st1" d="M1870.9-2015l574.2,71l-183.9,244.1l-404.6-282.2C1862.3-1992.6,1867.1-2003.6,1870.9-2015"/>
					<path id="path36" class="st1" d="M1876-2135.9l843.9-172.7L2487.3-2000l-605.7-99.6C1880.8-2111.9,1878.9-2124.1,1876-2135.9"
						/>
					<path id="path38" class="st2" d="M2760.6-2366.6c-260.1,37.4-825.2,119.2-953.2,142.8c-130.3,24-204.6,79.8-204.6,192.8
						c0,59.7,31,95.3,66.3,150.8c118.7,186.7,335.2,521.1,335.2,521.1h-234.9L832.5-2438.6h1982.3L2760.6-2366.6"/>
					<path id="path42" class="st0" d="M6760.5-2263.3h20.8l23.2-65.9h0.2l22.6,65.9h20.5v-84.2h-14v65h-0.2l-23.4-65h-12.1l-23.4,65
						h-0.2v-65h-14V-2263.3"/>
					<g>
						<path class="st3" d="M6923.4-2343.3c-5.9-3-13.6-4.5-23.1-4.5c-12.4,0-22.1,3.8-29.2,11.5s-10.6,17.9-10.6,30.7
							c0,13.6,4,24.7,12,33.1c8,8.5,18.3,12.7,31,12.7c7.9,0,14.5-1.1,19.9-3.1v-18.5c-5.4,3.4-11.6,5.1-18.5,5.1
							c-7.6,0-13.7-2.5-18.4-7.5c-4.7-5-7-11.8-7-20.4c0-8.2,2.2-14.8,6.6-19.7c4.4-4.9,10.3-7.3,17.7-7.3c7.1,0,13.6,1.8,19.5,5.5
							v-17.6H6923.4z"/>
					</g>
				</g>
			</g>
		</g>
	</g>
</g>
</svg>
