<?xml version="1.0" encoding="utf-8"?>
<!-- Generator: Adobe Illustrator 18.1.1, SVG Export Plug-In . SVG Version: 6.00 Build 0)  -->
<!DOCTYPE svg PUBLIC "-//W3C//DTD SVG 1.1//EN" "http://www.w3.org/Graphics/SVG/1.1/DTD/svg11.dtd">
<svg version="1.1" id="Layer_1" xmlns="http://www.w3.org/2000/svg" xmlns:xlink="http://www.w3.org/1999/xlink" x="0px" y="0px"
	 viewBox="0 0 626.2 108" enable-background="new 0 0 626.2 108" xml:space="preserve">
<g>
	<g>
		<path fill="#646569" d="M190.8,24.5h84.4v13.1h-31.7v61.4h-21.8V37.7h-30.9V24.5z"/>
		<path fill="#646569" d="M279.9,24.5h21.8v74.5h-21.8V24.5z"/>
		<path fill="#646569" d="M315.3,24.5h21.8v56.1c0,5.4,5.1,5.3,9.7,5.3h28.4v13.1H339c-12.3,0-23.7-3.1-23.7-14.5V24.5z"/>
		<path fill="#646569" d="M519.4,24.5h-24.8l-35,67.6l-16.6-22.4c6.4-1.3,18.2-3.6,18.2-22c0-17.8-13.3-23.2-31.2-23.2h-49.9v74.5
			h21.8V70.9h19.2l18.9,28.2h39.4l8.3-16.5h37.4l8.1,16.5h23.2L519.4,24.5z M428.1,58.2h-25.9V37.2h25.9c6.9,0,11.2,2.1,11.2,10.6
			C439.4,56.8,435.6,58.2,428.1,58.2z M493.6,69.9l13.7-26.7l12.8,26.7H493.6z"/>
		<path fill="#646569" d="M555.8,24.5l22.3,35.7l24.5-35.7h23.7l-37.6,51.4v23.1h-21.8V75.9l-34.8-51.4H555.8z"/>
	</g>
	<path fill="#ECA55D" d="M96.8,55.6l42.3-26.5L120.6,4.6L94,53.6C95,54.2,95.9,54.8,96.8,55.6z"/>
	<path fill="#ECA55D" d="M103.8,65.6l57.4-7.1l-18.4-24.4l-40.5,28.2C103,63.4,103.5,64.5,103.8,65.6z"/>
	<path fill="#ECA55D" d="M104.3,77.7L188.7,95l-23.3-30.9l-60.6,10C104.8,75.3,104.6,76.5,104.3,77.7z"/>
	<path fill="#004876" d="M192.8,100.8c-26-3.7-82.5-11.9-95.3-14.3c-13-2.4-20.5-8-20.5-19.3c0-6,3.1-9.5,6.6-15.1
		C95.5,33.4,117.2,0,117.2,0L93.7,0L0,108l198.2,0L192.8,100.8z"/>
</g>
<g>
	<path fill="#646569" d="M612.5,90.7c0,5.1-4,9-9.1,9c-5.1,0-9.2-4-9.2-9c0-4.9,4.1-8.9,9.2-8.9C608.6,81.8,612.5,85.8,612.5,90.7z
		 M596.5,90.7c0,4,2.9,7.1,7,7.1c3.9,0,6.8-3.2,6.8-7.1c0-4-2.9-7.2-6.8-7.2S596.5,86.8,596.5,90.7z M602,95.4h-2.1v-8.9
		c0.8-0.2,2-0.3,3.4-0.3c1.7,0,2.4,0.3,3.1,0.7c0.5,0.4,0.9,1.1,0.9,2c0,1-0.8,1.7-1.8,2.1V91c0.9,0.3,1.4,1,1.6,2.2
		c0.3,1.4,0.4,1.9,0.7,2.2h-2.2c-0.3-0.3-0.4-1.1-0.7-2.2c-0.2-1-0.7-1.4-1.8-1.4h-1V95.4z M602,90.3h1c1.1,0,2.1-0.4,2.1-1.3
		c0-0.8-0.6-1.4-1.9-1.4c-0.5,0-0.9,0.1-1.1,0.1V90.3z"/>
</g>
</svg>
