<?xml version="1.0" encoding="utf-8"?>
<!-- Generator: Adobe Illustrator 19.1.0, SVG Export Plug-In . SVG Version: 6.00 Build 0)  -->
<svg version="1.0" id="Layer_1" xmlns="http://www.w3.org/2000/svg" xmlns:xlink="http://www.w3.org/1999/xlink" x="0px" y="0px"
	 viewBox="0 0 835 143.9" style="enable-background:new 0 0 835 143.9;" xml:space="preserve">
<style type="text/css">
	.st1{fill:#5D5F66;}
	.st2{fill:#EB9C48;}
	.st3{fill:#1F4677;}
	.st4{fill:#575757;}
	.st5{font-family:'Gadugi-Bold';}
	.st6{font-size:16.2135px;}
	.st7{clip-path:url(#SVGID_4_);}
	.st8{clip-path:url(#SVGID_6_);}
</style>
<g id="g10" transform="matrix(1.3333333,0,0,-1.3333333,0,143.94667)">
	<g id="g12" transform="scale(0.1)">
		<g id="g10_2_" transform="matrix(1.3333333,0,0,-1.3333333,0,143.94667)">
			<g id="g12_2_" transform="scale(0.1)">
				<g>
					<defs>
						<rect id="SVGID_1_" x="23065" y="-3040.7" width="834.9" height="143.9"/>
					</defs>
					<clipPath id="SVGID_2_">
						<use xlink:href="#SVGID_1_"  style="overflow:visible;"/>
					</clipPath>
					<g id="g16_2_" class="st0">
						<path id="path22_2_" class="st1" d="M14311.1-5176.5h6326.3v984.9h-2373.8V412.1h-1637.2v-4603.7h-2315.3L14311.1-5176.5"/>
						<path id="path24_2_" class="st1" d="M20994.7,412.1h1637.2v-5588.6h-1637.2V412.1z"/>
						<path id="path26_2_" class="st1" d="M23647.4-5176.5h1637.2v4206.7c0,404.6,385.9,397,724.9,397h2132.3v984.9h-2717
							c-923.8,0-1777.4-229-1777.4-1084.1V-5176.5"/>
						<path id="path28_2_" class="st1" d="M37016.6-1771.4l1029.1-2000.3l958.7,2000.3H37016.6z M32110.9-2649.4h-1941.1v-1580.4
							h1941.1c514.7,0,841.9,160.4,841.9,794.1C32952.8-2756.3,32672.2-2649.4,32110.9-2649.4z M38957.8-5176.5h-1859.3
							L34477.1-104.4l-1243.7-1682.3c479.5-99.2,1368.2-267.2,1368.2-1649c0-1336.1-994.1-1740.8-2338.6-1740.8h-3742V412.1h1637
							v-2114.8h1438.3l1415,2114.8h2952.8l619.6-1236.7h2806.5l608.1,1236.7h1742.3L38957.8-5176.5"/>
						<path id="path30_2_" class="st1" d="M41682.7-5176.5l1672.2,2679.8l1835.8-2679.8h1777.4L44150-1320.9v1733h-1637v-1733
							l-2607.7-3855.5H41682.7"/>
						<path id="path32_2_" class="st2" d="M7260.2-2850.8l3172.1-1985.1L9045.8-6675.9L7049-2994.5
							C7122.9-2952.5,7193.4-2904.4,7260.2-2850.8"/>
						<path id="path34_2_" class="st2" d="M7788.1-2097.2l4306.5-532.7L10715-4460.7L7680.8-2344.5
							C7723.6-2264.9,7759.4-2182.3,7788.1-2097.2"/>
						<path id="path36_2_" class="st2" d="M7826.1-1190.1l6329.5,1295.2l-1744.3-2314.8l-4542.9,746.8
							C7862-1370.2,7847.8-1279,7826.1-1190.1"/>
						<path id="path38_2_" class="st3" d="M14460.5,539.6C12509.9,259.3,8271.7-354.2,7311.8-531.2
							c-977-180.1-1534.8-598.4-1534.8-1446.1c0-447.7,232.7-714.6,497.5-1131.3c890-1400.3,2514.2-3908.6,2514.2-3908.6H7026.6
							L0,1079.6h14867.4L14460.5,539.6"/>
						<path id="path42_2_" class="st1" d="M44459.8-234.6h155.7l174.2,494.5h1.8l169.8-494.5h154V397H45010V-90.4h-1.8L44833.1,397
							h-91.1l-175.2-487.4h-1.7V397h-105.2V-234.6"/>
						<text transform="matrix(53.3435 0 0 56.25 45178.1641 387.7694)" class="st4 st5 st6">C</text>
					</g>
				</g>
			</g>
		</g>
		<g id="g10_1_" transform="matrix(1.3333333,0,0,-1.3333333,0,143.94667)">
			<g id="g12_1_" transform="scale(0.1)">
				<g>
					<defs>
						<rect id="SVGID_3_" x="23065" y="-3040.7" width="834.9" height="143.9"/>
					</defs>
					<clipPath id="SVGID_4_">
						<use xlink:href="#SVGID_3_"  style="overflow:visible;"/>
					</clipPath>
					<g id="g16_1_" class="st7">
						<path id="path22_1_" class="st1" d="M14311.1-5176.5h6326.3v984.9h-2373.8V412.1h-1637.2v-4603.7h-2315.3L14311.1-5176.5"/>
						<path id="path24_1_" class="st1" d="M20994.7,412.1h1637.2v-5588.6h-1637.2V412.1z"/>
						<path id="path26_1_" class="st1" d="M23647.4-5176.5h1637.2v4206.7c0,404.6,385.9,397,724.9,397h2132.3v984.9h-2717
							c-923.8,0-1777.4-229-1777.4-1084.1V-5176.5"/>
						<path id="path28_1_" class="st1" d="M37016.6-1771.4l1029.1-2000.3l958.7,2000.3H37016.6z M32110.9-2649.4h-1941.1v-1580.4
							h1941.1c514.7,0,841.9,160.4,841.9,794.1C32952.8-2756.3,32672.2-2649.4,32110.9-2649.4z M38957.8-5176.5h-1859.3
							L34477.1-104.4l-1243.7-1682.3c479.5-99.2,1368.2-267.2,1368.2-1649c0-1336.1-994.1-1740.8-2338.6-1740.8h-3742V412.1h1637
							v-2114.8h1438.3l1415,2114.8h2952.8l619.6-1236.7h2806.5l608.1,1236.7h1742.3L38957.8-5176.5"/>
						<path id="path30_1_" class="st1" d="M41682.7-5176.5l1672.2,2679.8l1835.8-2679.8h1777.4L44150-1320.9v1733h-1637v-1733
							l-2607.7-3855.5H41682.7"/>
						<path id="path32_1_" class="st2" d="M7260.2-2850.8l3172.1-1985.1L9045.8-6675.9L7049-2994.5
							C7122.9-2952.5,7193.4-2904.4,7260.2-2850.8"/>
						<path id="path34_1_" class="st2" d="M7788.1-2097.2l4306.5-532.7L10715-4460.7L7680.8-2344.5
							C7723.6-2264.9,7759.4-2182.3,7788.1-2097.2"/>
						<path id="path36_1_" class="st2" d="M7826.1-1190.1l6329.5,1295.2l-1744.3-2314.8l-4542.9,746.8
							C7862-1370.2,7847.8-1279,7826.1-1190.1"/>
						<path id="path38_1_" class="st3" d="M14460.5,539.6C12509.9,259.3,8271.7-354.2,7311.8-531.2
							c-977-180.1-1534.8-598.4-1534.8-1446.1c0-447.7,232.7-714.6,497.5-1131.3c890-1400.3,2514.2-3908.6,2514.2-3908.6H7026.6
							L0,1079.6h14867.4L14460.5,539.6"/>
						<path id="path42_1_" class="st1" d="M44459.8-234.6h155.7l174.2,494.5h1.8l169.8-494.5h154V397H45010V-90.4h-1.8L44833.1,397
							h-91.1l-175.2-487.4h-1.7V397h-105.2V-234.6"/>
						<text transform="matrix(53.3435 0 0 56.25 45178.1641 387.7694)" class="st4 st5 st6">C</text>
					</g>
				</g>
			</g>
		</g>
		<g>
			<defs>
				<rect id="SVGID_5_" x="2713.5" y="467.8" width="834.9" height="143.9"/>
			</defs>
			<clipPath id="SVGID_6_">
				<use xlink:href="#SVGID_5_"  style="overflow:visible;"/>
			</clipPath>
			<g id="g16" class="st8">
				<path id="path22" class="st1" d="M1908.1,834.2h843.5V702.9h-316.5V89h-218.3v613.8h-308.7L1908.1,834.2"/>
				<path id="path24" class="st1" d="M2799.3,89h218.3v745.1h-218.3V89z"/>
				<path id="path26" class="st1" d="M3153,834.2h218.3V273.3c0-53.9,51.4-52.9,96.7-52.9h284.3V89H3390
					c-123.2,0-237,30.5-237,144.5V834.2"/>
				<path id="path28" class="st1" d="M4935.6,380.2l137.2,266.7l127.8-266.7H4935.6z M4281.5,497.2h-258.8V708h258.8
					c68.6,0,112.3-21.4,112.3-105.9C4393.7,511.5,4356.3,497.2,4281.5,497.2z M5194.4,834.2h-247.9L4597,157.9l-165.8,224.3
					c63.9,13.2,182.4,35.6,182.4,219.9c0,178.1-132.5,232.1-311.8,232.1h-498.9V89h218.3v282h191.8l188.7-282h393.7l82.6,164.9
					h374.2L5333.1,89h232.3L5194.4,834.2"/>
				<path id="path30" class="st1" d="M5557.7,834.2l223-357.3l244.8,357.3h237l-375.8-514.1V89h-218.3v231.1l-347.7,514.1H5557.7"/>
				<path id="path32" class="st2" d="M968,524.1L1391,788.8l-184.9,245.3L939.9,543.3C949.7,537.6,959.1,531.2,968,524.1"/>
				<path id="path34" class="st2" d="M1038.4,423.6l574.2,71l-183.9,244.1l-404.6-282.2C1029.8,446,1034.6,435,1038.4,423.6"/>
				<path id="path36" class="st2" d="M1043.5,302.7L1887.4,130l-232.6,308.6L1049.1,339C1048.3,326.7,1046.4,314.5,1043.5,302.7"/>
				<path id="path38" class="st3" d="M1928.1,72c-260.1,37.4-825.2,119.2-953.2,142.8c-130.3,24-204.6,79.8-204.6,192.8
					c0,59.7,31,95.3,66.3,150.8c118.7,186.7,335.2,521.1,335.2,521.1H936.9L0,0h1982.3L1928.1,72"/>
				<path id="path42" class="st1" d="M5928,175.3h20.8l23.2-65.9h0.2l22.6,65.9h20.5V91.1h-14v65h-0.2l-23.4-65h-12.1l-23.4,65h-0.2
					v-65h-14V175.3"/>
				<g>
					<path class="st4" d="M6090.9,95.3c-5.9-3-13.6-4.5-23.1-4.5c-12.4,0-22.1,3.8-29.2,11.5c-7.1,7.7-10.6,17.9-10.6,30.7
						c0,13.6,4,24.7,12,33.1c8,8.5,18.3,12.7,31,12.7c7.9,0,14.5-1.1,19.9-3.1v-18.5c-5.4,3.4-11.6,5.1-18.5,5.1
						c-7.6,0-13.7-2.5-18.4-7.5c-4.7-5-7-11.8-7-20.4c0-8.2,2.2-14.8,6.6-19.7c4.4-4.9,10.3-7.3,17.7-7.3c7.1,0,13.6,1.8,19.5,5.5
						V95.3z"/>
				</g>
			</g>
		</g>
	</g>
</g>
</svg>
