<?xml version="1.0" encoding="UTF-8" standalone="no"?>
<svg
   xmlns:dc="http://purl.org/dc/elements/1.1/"
   xmlns:cc="http://creativecommons.org/ns#"
   xmlns:rdf="http://www.w3.org/1999/02/22-rdf-syntax-ns#"
   xmlns:svg="http://www.w3.org/2000/svg"
   xmlns="http://www.w3.org/2000/svg"
   viewBox="0 0 834.98669 143.94667"
   height="143.94667"
   width="834.98669"
   xml:space="preserve"
   id="svg2"
   version="1.1"><metadata
     id="metadata8"><rdf:RDF><cc:Work
         rdf:about=""><dc:format>image/svg+xml</dc:format><dc:type
           rdf:resource="http://purl.org/dc/dcmitype/StillImage" /></cc:Work></rdf:RDF></metadata><defs
     id="defs6"><clipPath
       id="clipPath20"
       clipPathUnits="userSpaceOnUse"><path
         id="path18"
         d="M 0,0 H 6262 V 1079.56 H 0 Z" /></clipPath></defs><g
     transform="matrix(1.3333333,0,0,-1.3333333,0,143.94667)"
     id="g10"><g
       transform="scale(0.1)"
       id="g12"><g
         id="g14"><g
           clip-path="url(#clipPath20)"
           id="g16"><path
             id="path22"
             style="fill:#ffffff;fill-opacity:1;fill-rule:nonzero;stroke:none"
             d="m 1908.14,834.141 h 843.51 V 702.82 H 2435.14 V 89 h -218.29 v 613.82 h -308.71 v 131.321" /><path
             id="path24"
             style="fill:#ffffff;fill-opacity:1;fill-rule:nonzero;stroke:none"
             d="m 2799.29,89 h 218.293 V 834.141 H 2799.29 Z" /><path
             id="path26"
             style="fill:#ffffff;fill-opacity:1;fill-rule:nonzero;stroke:none"
             d="m 3152.98,834.141 h 218.29 V 273.246 c 0,-53.949 51.45,-52.93 96.66,-52.93 h 284.31 V 89 h -362.27 c -123.17,0 -236.99,30.535 -236.99,144.547 v 600.594" /><path
             id="path28"
             style="fill:#ffffff;fill-opacity:1;fill-rule:nonzero;stroke:none"
             d="m 4935.55,380.133 137.21,266.703 127.83,-266.703 z m -654.1,117.07 h -258.81 v 210.719 h 258.81 c 68.62,0 112.26,-21.387 112.26,-105.883 0,-90.586 -37.42,-104.836 -112.26,-104.836 z m 912.92,336.938 H 4946.46 L 4596.95,157.863 4431.13,382.172 c 63.93,13.23 182.43,35.621 182.43,219.867 0,178.145 -132.54,232.102 -311.82,232.102 H 3802.81 V 89 h 218.27 v 281.969 h 191.78 L 4401.52,89 h 393.71 l 82.62,164.898 h 374.2 L 5333.13,89 h 232.31 l -371.07,745.141" /><path
             id="path30"
             style="fill:#ffffff;fill-opacity:1;fill-rule:nonzero;stroke:none"
             d="m 5557.69,834.141 222.96,-357.301 244.77,357.301 h 236.99 L 5886.66,320.07 V 89 H 5668.39 V 320.07 L 5320.7,834.141 h 236.99" /><path
             id="path32"
             style="fill:#ffffff;fill-opacity:1;fill-rule:nonzero;stroke:none"
             d="M 968.027,524.059 1390.97,788.734 1206.11,1034.06 939.871,543.211 c 9.844,-5.602 19.25,-12.008 28.156,-19.152" /><path
             id="path34"
             style="fill:#ffffff;fill-opacity:1;fill-rule:nonzero;stroke:none"
             d="m 1038.41,423.574 574.2,71.031 -183.94,244.098 -404.56,-282.152 c 5.7,-10.613 10.48,-21.629 14.3,-32.977" /><path
             id="path36"
             style="fill:#ffffff;fill-opacity:1;fill-rule:nonzero;stroke:none"
             d="m 1043.48,302.629 843.93,-172.695 -232.57,308.64 -605.72,-99.57 c -0.85,-12.359 -2.75,-24.52 -5.64,-36.375" /><path
             id="path38"
             style="fill:#ffffff;fill-opacity:1;fill-rule:nonzero;stroke:none"
             d="m 1928.06,72 c -260.07,37.367 -825.17,119.176 -953.158,142.77 -130.261,24.007 -204.644,79.789 -204.644,192.812 0,59.699 31.023,95.277 66.34,150.836 118.672,186.703 335.222,521.142 335.222,521.142 H 936.879 L 0,0 h 1982.32 l -54.26,72" /><path
             id="path40"
             style="fill:#ffffff;fill-opacity:1;fill-rule:nonzero;stroke:none"
             d="m 5925.21,175.23 h 68.18 v -12.746 h -26.78 V 91.0117 h -14.75 v 71.4723 h -26.65 v 12.746" /><path
             id="path42"
             style="fill:#ffffff;fill-opacity:1;fill-rule:nonzero;stroke:none"
             d="m 6002.97,175.23 h 20.76 l 23.23,-65.937 h 0.24 l 22.64,65.937 h 20.53 V 91.0117 h -14.04 V 156 h -0.24 l -23.35,-64.9883 h -12.15 L 6017.23,156 H 6017 V 91.0117 h -14.03 V 175.23" /></g></g></g></g></svg>